<svg xmlns="http://www.w3.org/2000/svg" xmlns:xlink="http://www.w3.org/1999/xlink"><symbol viewBox="0 0 37.8 42.5" id="backpack"><g opacity=".25" fill="none" stroke="#000" stroke-miterlimit="10"><path d="M4.7 36.9c0 .6.1 1.2.3 1.8-2.5-.3-4.5-2.5-4.5-5.1v-4.3c0-2.5 1.8-4.6 4.2-5v12.6zm32.6-7.6v4.3c0 2.7-2.1 5-4.8 5.1.2-.6.3-1.2.3-1.8V24.2c2.5.3 4.5 2.5 4.5 5.1z"/><path d="M32.8 16.7v20.1c0 .6-.1 1.3-.3 1.8-.7 1.9-2.6 3.3-4.8 3.3H9.8c-2.2 0-4.1-1.4-4.8-3.3-.2-.6-.3-1.2-.3-1.8V16.2c.9.9 2.2 1.5 3.6 1.5H30c1-.1 2-.4 2.8-1z"/><path d="M35.1 10.9v1.6c0 1.8-.9 3.3-2.3 4.3-.8.6-1.8.9-2.9.9H8.2c-1.4 0-2.6-.6-3.6-1.5S3 14 3 12.5v-1.6c0-2.8 2.3-5.1 5.1-5.1h21.7c2.9-.1 5.3 2.2 5.3 5.1zM25.8 5c0 .2 0 .5-.1.7h-14c0-.2-.1-.4-.1-.7 0-2.5 2-4.5 4.5-4.5h5.1c2.6 0 4.6 2 4.6 4.5zm.6 26.7V42H10.8V31.7c0-2.8 2.3-5.1 5.1-5.1h5.4c2.8 0 5.1 2.3 5.1 5.1z"/><path stroke-linecap="round" stroke-linejoin="round" d="M13.6 33.9H24c-1.2 0-1.3.2-1.7 1m12.4-20.8H23l-2.1 2.1v6.2h-4.2v-6.2l-2.2-2.1h-11"/><path d="M14.8 19.6h7.7M14.7 9.3h7.6v2h-7.6z"/></g></symbol><symbol viewBox="0 0 35.2 45.7" id="certificate"><g opacity=".25"><path fill="none" stroke="#000" stroke-miterlimit="10" d="M18.4 32.9c0 1.1-.4 2.1-1.1 2.8-.8.8-1.9 1.4-3.1 1.4-1.4 0-2.6-.7-3.3-1.7-.5-.7-.9-1.6-.9-2.5 0-2.3 1.9-4.2 4.2-4.2 2.3 0 4.2 1.9 4.2 4.2z"/><path d="M16.6 36.6v8.8s-2.4-3.8-2.4-3.6l-2.6 3.9v-9.5c.9.7 1.5.9 2.6.9.9.1 1.5-.1 2.4-.5z"/><path fill="none" stroke="#000" stroke-miterlimit="10" d="M6.3 14.4h15.4M6.3 17.3h15.4M6.3 20.2h15.4m-15.4 3h15.4M6.3 26.1h15.4M16.3 6.7h5.2v2.7h-5.2z"/><path fill="none" stroke="#000" stroke-miterlimit="10" d="M12.3 39.9H.5V4.7S.4.5 4 .5c4.4 0 27 .2 27 .2-3.7 0-3.8 3.7-3.8 3.7v35.2c.2.1-5.9 0-11.3.1"/><path fill="none" stroke="#000" stroke-miterlimit="10" d="M30.9.7c2.8 0 3.8 2.7 3.8 3.8 0 4-2.9 3.9-4 3.5v6.7"/></g></symbol><symbol viewBox="-90 -56 234.9 234.9" id="codepen"><path d="M-17 61.5c-5.2 3.5-10.3 6.9-15.5 10.3V51.2c5.2 3.4 10.2 6.8 15.5 10.3zm38.2 26.6v28.1C4.8 105.3-11.3 94.5-27.6 83.6c7.1-4.8 14.1-9.4 21-14.1.7-.5 1.2-.4 1.8 0l25.2 16.8c.5.6.9 1 .8 1.8zM-6.6 53.5c-6.9-4.7-13.9-9.3-21-14.1C-11.4 28.6 4.7 17.8 21.2 6.8v27.6c0 1.1-.3 1.7-1.2 2.3-8.2 5.5-16.5 11-24.7 16.5-.6.4-1 .9-1.9.3zm45.4 15.2c-3.4 2.3-6.8 4.5-10.2 6.8-.6.4-1.1.8-2 .2-7-4.7-14-9.4-21.2-14.2 7.2-4.8 14.2-9.5 21.1-14.1.6-.4 1.1-.6 1.8-.1 7 4.7 14 9.4 21.2 14.2-3.6 2.5-7.1 4.8-10.7 7.2zm22.8.8c6.9 4.7 13.9 9.4 21 14.1-16.2 10.8-32.3 21.6-48.4 32.3-.7-.3-.4-.9-.4-1.3v-26c0-1.1.3-1.7 1.2-2.3 8.2-5.5 16.5-11 24.7-16.5.6-.4 1.1-.9 1.9-.3zM33.7 34.8c.1-9 0-18 0-27.1 0-.2.1-.4.2-.8 16.2 10.8 32.3 21.5 48.6 32.4-1 .7-1.8 1.3-2.7 1.9-5.9 3.9-11.8 7.9-17.7 11.9-1 .7-1.7.8-2.8 0-8.1-5.5-16.2-10.9-24.3-16.3-.6-.5-1.3-.9-1.3-2zM72 61.5c5.2-3.5 10.2-6.8 15.5-10.3v20.7C82.3 68.3 77.3 65 72 61.5z"/><path d="M27.4-56C-37.4-55.9-89.9-3.4-90 61.4c-.1 64.8 52.6 117.5 117.5 117.6C92.3 179 145 126.3 145 61.5 145-3.4 92.3-56 27.4-56zm72.7 117.6v20.9c0 3-1.1 5.2-3.6 6.8-21.6 14.3-43.2 28.7-64.7 43.1-3.3 2.2-5.4 2.2-8.7 0-21.5-14.3-43-28.7-64.6-43-2.6-1.7-3.8-3.9-3.7-7 .1-13.9.1-27.9 0-41.8 0-3.2 1.1-5.4 3.8-7.2C-19.9 19.2 1.6 4.9 23-9.4c3.5-2.3 5.4-2.3 9 0C53.5 5 74.9 19.3 96.4 33.5c2.6 1.7 3.8 3.9 3.7 7v21.1z"/><path fill="#FEFEFE" d="M-17 61.5c-5.2 3.5-10.3 6.9-15.5 10.3V51.2c5.2 3.4 10.2 6.8 15.5 10.3zm38.2 26.6v28.1C4.8 105.3-11.3 94.5-27.6 83.6c7.1-4.8 14.1-9.4 21-14.1.7-.5 1.2-.4 1.8 0l25.2 16.8c.5.6.9 1 .8 1.8zM-6.6 53.5c-6.9-4.7-13.9-9.3-21-14.1C-11.4 28.6 4.7 17.8 21.2 6.8v27.6c0 1.1-.3 1.7-1.2 2.3-8.2 5.5-16.5 11-24.7 16.5-.6.4-1 .9-1.9.3zm45.4 15.2c-3.4 2.3-6.8 4.5-10.2 6.8-.6.4-1.1.8-2 .2-7-4.7-14-9.4-21.2-14.2 7.2-4.8 14.2-9.5 21.1-14.1.6-.4 1.1-.6 1.8-.1 7 4.7 14 9.4 21.2 14.2-3.6 2.5-7.1 4.8-10.7 7.2zm22.8.8c6.9 4.7 13.9 9.4 21 14.1-16.2 10.8-32.3 21.6-48.4 32.3-.7-.3-.4-.9-.4-1.3v-26c0-1.1.3-1.7 1.2-2.3 8.2-5.5 16.5-11 24.7-16.5.6-.4 1.1-.9 1.9-.3zM33.7 34.8c.1-9 0-18 0-27.1 0-.2.1-.4.2-.8 16.2 10.8 32.3 21.5 48.6 32.4-1 .7-1.8 1.3-2.7 1.9-5.9 3.9-11.8 7.9-17.7 11.9-1 .7-1.7.8-2.8 0-8.1-5.5-16.2-10.9-24.3-16.3-.6-.5-1.3-.9-1.3-2zm53.8 16.4v20.7C82.3 68.3 77.3 65 72 61.5c5.2-3.5 10.2-6.8 15.5-10.3z"/><path d="M21.3 34.4c0 1.1-.3 1.7-1.2 2.3-8.2 5.5-16.5 11-24.7 16.5-.6.4-1.1.9-2 .3-6.9-4.7-13.9-9.3-21-14.1C-11.4 28.6 4.7 17.8 21.2 6.8v11c0 5.5 0 11.1.1 16.6zm61.3 4.9c-1 .7-1.8 1.3-2.7 1.9-5.9 3.9-11.8 7.9-17.7 11.9-1 .7-1.7.8-2.8 0-8.1-5.5-16.2-10.9-24.3-16.3-.8-.5-1.4-.9-1.4-2 .1-9 0-18 0-27.1 0-.2.1-.4.2-.8 16.3 10.9 32.4 21.6 48.7 32.4zm-61.4 76.9C4.8 105.3-11.3 94.5-27.6 83.6c7.1-4.8 14.1-9.4 21-14.1.7-.5 1.2-.4 1.8 0l25.2 16.8c.6.4 1 .8 1 1.6-.2 9.4-.2 18.6-.2 28.3zm61.4-32.6c-16.2 10.8-32.3 21.6-48.4 32.3-.7-.3-.4-.9-.4-1.3v-26c0-1.1.3-1.7 1.2-2.3 8.2-5.5 16.5-11 24.7-16.5.6-.4 1.1-.8 2-.2 6.9 4.6 13.8 9.3 20.9 14zm-33-22.1c-3.7 2.5-7.2 4.8-10.8 7.2-3.4 2.3-6.8 4.5-10.2 6.8-.6.4-1.1.8-2 .2-7-4.7-14-9.4-21.2-14.2 7.2-4.8 14.2-9.5 21.1-14.1.6-.4 1.1-.6 1.8-.1 7 4.7 14.1 9.4 21.3 14.2zm-66.6 0c-5.2 3.5-10.3 6.9-15.5 10.3V51.2c5.2 3.4 10.2 6.8 15.5 10.3zM87.5 51.2v20.7C82.3 68.3 77.3 65 72 61.5c5.2-3.5 10.2-6.8 15.5-10.3z"/></symbol><symbol viewBox="0 0 44.3 42.2" id="digital-employed"><g fill="none" stroke="#000" stroke-miterlimit="10"><g opacity=".25"><path d="M.5 38.6v-7.8s.3-3.2 4.9-4.6c4.6-1.4 8.5-3.9 8.5-3.9l3.9 3.8m-10.2-.6v12.7m3.2-14.3v14.3m3.1-15.9v-3.1m7.7 3.1v-3.5m-10.8-9s.6 11 6.8 11 7.1-11.3 7.1-11.3"/><path d="M9 8.9c1.4 0 3.6-8.4 8.6-8.4s7.4 8.7 8.6 8.7-4.3 2.3-8.5 2.3S7.7 8.9 9 8.9zm7.4-.9V.7M18.9 8V.7"/></g><g opacity=".25"><path d="M41.9 26.1v10.5c0 .7-.2 1.3-.5 1.8h-8.2l-.9 1.6H28l-.9-1.6h-8.4c-.3-.5-.5-1.1-.5-1.8V26.1c0-1.8 1.5-3.4 3.4-3.4h17.1c1.7 0 3.2 1.5 3.2 3.4z"/><path d="M43.8 38.4c0 2.2-2 3.3-2 3.3H18.5s-2-1.1-2-3.3h10.6L28 40l.1.1h4.2l.1-.1.9-1.6h10.5zM20.5 25.2h18.8V36H20.5z"/></g></g></symbol><symbol viewBox="0 0 28 29.8" id="download"><path d="M14 .2v23.4m-7.2-7.3l7.2 7.2 7.2-7.2" fill="none" stroke="#44B6E5" stroke-miterlimit="10"/><path fill="none" stroke="#44B6E5" stroke-miterlimit="10" d="M27.1 19.1v9.7H.9v-9.7"/></symbol><symbol viewBox="0 0 512 512" id="email"><path d="M512 85.25V448H0V85.25l256 224 256-224zM487.688 64H24.298L256 266.75 487.688 64z"/></symbol><symbol viewBox="0 0 28.8 28.9" id="external-link"><path d="M23.6 14.2v14H.8V5.4h13.4M11.9 17l16-16m0 10V1.1h-10" fill="none" stroke="#44B6E5" stroke-miterlimit="10"/></symbol><symbol viewBox="0 0 45.9 41.6" id="film-employed"><g fill="none" stroke="#000" stroke-miterlimit="10"><g opacity=".25"><path d="M22.4 23.3c-.1-.1-1.8-1.2-1.8-1.2L17 25.7l-3.7-3.6s-3.7 2.4-8.1 3.7C.8 27.1.6 30.2.6 30.2v7.4m6.6-12.5v12.1m3.1-13.7v13.7m2.9-15.1v-3m7.3 3v-3.4m-10.3-8.5s.6 10.4 6.5 10.4 6.8-10.7 6.8-10.7"/><path d="M8.6 9.4c1.3 0 3.4-8 8.2-8s7.1 8.3 8.2 8.3c1.1 0-4.1 2.2-8.1 2.2S7.3 9.4 8.6 9.4zm6.9-.9v-7m2.4 7v-7"/></g><g opacity=".25"><path d="M40.9 31.2v7.5c0 1.4-1.1 2.6-2.3 2.6h-16c-1.3 0-2.3-1.1-2.3-2.6v-7.5c0-1.4 1.1-2.6 2.3-2.6h16c1.3 0 2.3 1.2 2.3 2.6z"/><path stroke-linecap="round" stroke-linejoin="round" d="M44.8 39.4c-.3.3-2.1-.4-3.9-1.3v-4.2c1.8-.9 3.5-1.6 3.9-1.3.6.7.6 6.2 0 6.8z"/><circle cx="34.2" cy="24.7" r="3.8"/><circle cx="26.4" cy="24.7" r="3.8"/><circle cx="37.7" cy="31.3" r="1.5"/><path d="M34.5 28.6v12.5"/></g></g></symbol><symbol viewBox="0 0 438.549 438.549" id="github"><path d="M409.132 114.573c-19.608-33.596-46.205-60.194-79.798-79.8C295.736 15.166 259.057 5.365 219.27 5.365c-39.78 0-76.47 9.804-110.062 29.408-33.596 19.605-60.192 46.204-79.8 79.8C9.803 148.168 0 184.853 0 224.63c0 47.78 13.94 90.745 41.827 128.906 27.884 38.164 63.906 64.572 108.063 79.227 5.14.954 8.945.283 11.42-1.996 2.474-2.282 3.71-5.14 3.71-8.562 0-.57-.05-5.708-.144-15.417-.098-9.71-.144-18.18-.144-25.406l-6.567 1.136c-4.187.767-9.47 1.092-15.846 1-6.375-.09-12.992-.757-19.843-2-6.854-1.23-13.23-4.085-19.13-8.558-5.898-4.473-10.085-10.328-12.56-17.556l-2.855-6.57c-1.903-4.374-4.9-9.233-8.992-14.56-4.093-5.33-8.232-8.944-12.42-10.847l-1.998-1.43c-1.332-.952-2.568-2.1-3.71-3.43-1.143-1.33-1.998-2.663-2.57-3.997-.57-1.335-.097-2.43 1.428-3.29 1.525-.858 4.28-1.275 8.28-1.275l5.708.853c3.807.763 8.516 3.042 14.133 6.85 5.615 3.807 10.23 8.755 13.847 14.843 4.38 7.807 9.657 13.755 15.846 17.848 6.184 4.093 12.42 6.136 18.7 6.136 6.28 0 11.703-.476 16.273-1.423 4.565-.95 8.848-2.382 12.847-4.284 1.713-12.758 6.377-22.56 13.988-29.41-10.847-1.14-20.6-2.857-29.263-5.14-8.658-2.286-17.605-5.996-26.835-11.14-9.235-5.137-16.896-11.516-22.985-19.126-6.09-7.614-11.088-17.61-14.987-29.98-3.9-12.373-5.852-26.647-5.852-42.825 0-23.035 7.52-42.637 22.557-58.817-7.044-17.318-6.38-36.732 1.997-58.24 5.52-1.715 13.706-.428 24.554 3.853 10.85 4.284 18.794 7.953 23.84 10.995 5.046 3.04 9.09 5.618 12.135 7.708 17.706-4.947 35.977-7.42 54.82-7.42s37.116 2.473 54.822 7.42l10.85-6.85c7.418-4.57 16.18-8.757 26.26-12.564 10.09-3.806 17.803-4.854 23.135-3.14 8.562 21.51 9.325 40.923 2.28 58.24 15.035 16.18 22.558 35.788 22.558 58.818 0 16.178-1.958 30.497-5.853 42.966-3.9 12.47-8.94 22.457-15.125 29.98-6.19 7.52-13.9 13.85-23.13 18.985-9.233 5.14-18.183 8.85-26.84 11.135-8.663 2.286-18.416 4.004-29.264 5.146 9.894 8.563 14.842 22.078 14.842 40.54v60.237c0 3.422 1.19 6.28 3.572 8.562 2.38 2.278 6.136 2.95 11.276 1.994 44.163-14.653 80.185-41.062 108.068-79.226 27.88-38.16 41.826-81.126 41.826-128.906-.01-39.77-9.818-76.454-29.414-110.05z"/></symbol><symbol viewBox="0 0 16.1 27.7" id="internal-link"><path d="M8 1.7v24.2M.6 18.4L8 25.9l7.5-7.5" fill="none" stroke="#44B6E5" stroke-miterlimit="10"/></symbol><symbol viewBox="0 0 41.1 42.7" id="school-book"><g opacity=".25" fill="none" stroke="#000" stroke-miterlimit="10"><path stroke-linecap="round" stroke-linejoin="round" d="M20.7 40.9s-9.1-5-19.3 0V18.7s9.4-7.7 19.4 0l-.1 22.2z"/><path stroke-linecap="round" stroke-linejoin="round" d="M20.7 20v22.2s-9.1-3.3-19.3-.6V20m19.4 20.9s9.1-5 19.3 0V18.7s-9.4-7.7-19.4 0l.1 22.2z"/><path stroke-linecap="round" stroke-linejoin="round" d="M20.8 19.9v22.2s8.8-3.3 19.3-.5V19.9"/><path d="M7.8 10.9l-.9-1.6L20.6 2l13.6 7.3-.9 1.6-12.7-6.7z"/></g><path opacity=".25" fill="none" stroke="#000" stroke-miterlimit="10" d="M6.1 21.8c3.2-.7 6.5-.7 9.9 0m-9.9 3.3c3.2-.7 6.5-.7 9.9 0m-9.9 3.4c3.2-.7 6.5-.7 9.9 0m10-6.7c3.2-.7 6.5-.7 9.9 0M26 25.1c3.2-.7 6.5-.7 9.9 0M26 28.5c3.2-.7 6.5-.7 9.9 0"/></symbol><symbol viewBox="0 0 39.5 42.6" id="study-abroad"><g opacity=".25" fill="none" stroke="#000" stroke-miterlimit="10"><path d="M34.5 27.5c0 8.1-6.5 14.6-14.6 14.6S5.3 35.6 5.3 27.5c0-3 .9-5.9 2.5-8.2 2.6-3.9 7-6.4 12.1-6.4 5 0 9.4 2.5 12 6.3 1.6 2.4 2.6 5.2 2.6 8.3z"/><path stroke-linecap="round" stroke-linejoin="round" d="M28.2 15.7s.1 6-2.4 7.2-4.6.9-6.2 2-4.3 1-4.6 2.3c-.3 1.3 6 5.3 8.5 1.7s2.2 2.1 1 4.3c-.6 1 4.4.6 4-1.5S27 27.2 27 27.2s6.9-.1 6.8 4.3m-25.4-13s.3 7.1 1.8 7.9c1.4.7-2.9 1.7-2.5 3.7s2.2 4.1 1.2 6.6"/><path d="M13.3 40.5s.6-14 13.6-.4"/><path stroke-linecap="round" stroke-linejoin="round" d="M20.4 20.9s.5-3.5-.8-3.8-1.9 4.6-1.9 5c.2.4 2.7-1.2 2.7-1.2zm3.4-7.4l1 3.4 1.5-2.3"/><path d="M7.8 19.1V13S9.3 7 20 7s11.5 5.9 11.5 5.9v5.9"/><path d="M7.8 13l-6.7-3L19.7.6 38.4 10l-6.9 2.9m-29-2.6v8"/><circle cx="2.4" cy="19.6" r="1.8"/></g></symbol><symbol viewBox="0 0 43.1 40.7" id="supervisor"><g opacity=".25" fill="none" stroke="#000" stroke-miterlimit="10"><path d="M29.1 25.4c-4.4-1.3-8.2-3.8-8.2-3.8l-3.7 3.7-3.8-3.7S9.6 24 5.2 25.4C.8 26.7.5 29.8.5 29.8v7.5m6.9-12.6V37m3.1-13.9V37M27 24.8v12.3m-3.1-13.9v13.9M13.4 21.6v-3m7.5 3v-3.4M10.4 9.5S11 20.1 17 20.1s6.9-10.9 6.9-10.9"/><path d="M8.8 8.7c1.3 0 3.5-8.2 8.3-8.2s7.2 8.4 8.3 8.4c1.2 0-4.2 2.2-8.2 2.2S7.4 8.7 8.8 8.7zm7.1-.9V.7m2.4 7.1V.7M42.6 21.4v18.8H29.2V21.4h3.5v1.7h6.4v-1.7z"/><path d="M32.7 20.1h6.5v3h-6.5zm7.5 6h-8.5m8.5 2.3h-8.5m8.5 2.6h-8.5"/></g></symbol><symbol viewBox="0 0 33.6 36.6" id="supervisor-eyes"><g opacity=".25" fill="none" stroke="#000" stroke-miterlimit="10"><path d="M33.1 36.6v-7.4s-.3-3-4.6-4.4c-4.4-1.3-8-3.7-8-3.7l-3.6 3.6-3.7-3.6s-3.7 2.4-8 3.7C.8 26.1.6 29.2.6 29.2v7.4m6.6-12.4v12m3.1-13.6v13.6m16.1-11.9v12m-3-13.6v13.6M13.2 21.1v-2.9m7.3 2.9v-3.3M10.2 9.3s.6 10.4 6.4 10.4S23.4 9 23.4 9"/><path d="M8.6 8.5c1.3 0 3.4-8 8.1-8s7 8.2 8.1 8.2-4.1 2.2-8.1 2.2-9.4-2.4-8.1-2.4zm6.9-.9V.7m2.4 6.9V.7"/><circle cx="14.1" cy="12.5" r="1.7"/><circle cx="19" cy="12.5" r="1.7"/><path d="M10.7 11.6l1.7.9m8.3 0l2.1-.8"/></g></symbol><symbol viewBox="0 0 24.8 15.6" id="to-right"><path d="M0 7.8h24.2m-7.5 7.5l7.4-7.5L16.6.4" fill="none" stroke="#44B6E5" stroke-miterlimit="10"/></symbol><symbol viewBox="0 0 182.3 148.1" id="twitter"><g transform="matrix(.1333 0 0 -.1333 0 150.67)"><defs><path id="pa" d="M592.4 502.2h179.2v145.6H592.4z"/></defs><clipPath id="pb"><use xlink:href="#pa" overflow="visible"/></clipPath><g clip-path="url(#pb)"><path d="M1353.8 991.8c-49.4-21.9-102.6-36.8-158.3-43.4 56.9 34.1 100.6 88.2 121.2 152.5-53.3-31.6-112.3-54.5-175.1-66.9-50.3 53.6-121.9 87.1-201.2 87.1-152.3 0-275.7-123.4-275.7-275.7 0-21.6 2.4-42.7 7.1-62.8-229.1 11.4-432.2 121.2-568.2 288-23.7-40.7-37.3-88.1-37.3-138.6 0-95.7 48.7-180 122.7-229.5-45.2 1.4-87.7 13.8-124.9 34.5v-3.5c0-133.6 95-245 221.2-270.4-23.1-6.3-47.5-9.6-72.6-9.6-17.8 0-35 1.7-51.9 4.9 35-109.5 136.8-189.2 257.4-191.4-94.4-74-213.3-118-342.5-118-22.2 0-44.2 1.3-65.8 3.8C132 74.6 276.9 28.9 432.6 28.9 939.7 28.9 1217 449 1217 813.4c0 11.9-.3 23.8-.8 35.6 53.9 38.9 100.6 87.5 137.6 142.8"/></g></g></symbol><symbol viewBox="0 0 127.2 22.6" id="zigzag-small"><path fill="none" stroke="#F5F6F6" stroke-width="7" stroke-miterlimit="10" d="M2.6 15.4L16.7 5l12.4 10.4L43.2 5l12.4 10.4L69.6 5 82 15.4 96.1 5l12.4 10.4L122.6 5"/></symbol><symbol viewBox="0 0 22.6 658.3" id="zigzag-vertical"><path fill="none" stroke="#F5F6F6" stroke-width="7" stroke-miterlimit="10" d="M15.4 653.6L5 639.6l10.4-12.5-10.4-14 10.4-12.4L5 586.6l10.4-12.4L5 560.1l10.4-12.4L5 533.2l10.4-12.4L5 506.7l10.4-12.4-10.4-14 10.4-12.4L5 453.8l10.4-12.4L5 427.3l10.4-12.5-10.4-14 10.4-12.4L5 374.3l10.4-12.4L5 347.8l10.4-12.4L5 320.9l10.4-12.2-10.4-14 10.4-12.4L5 268.2l10.4-12.4L5 241.7l10.4-12.4L5 214.8l10.4-12.4L5 188.3l10.4-12.4-10.4-14 10.4-12.4L5 135.4 15.4 123 5 108.9l10.4-12.5L5 82.4 15.4 70 5 55.9l10.4-12.4L5 29.4 15.4 17 5 2.5"/></symbol></svg>