<?xml version="1.0" encoding="utf-8"?>
<!-- Generator: Adobe Illustrator 18.0.0, SVG Export Plug-In . SVG Version: 6.00 Build 0)  -->
<!DOCTYPE svg PUBLIC "-//W3C//DTD SVG 1.1//EN" "http://www.w3.org/Graphics/SVG/1.1/DTD/svg11.dtd">
<svg version="1.1" id="Layer_1" xmlns="http://www.w3.org/2000/svg" xmlns:xlink="http://www.w3.org/1999/xlink" x="0px" y="0px"
	 viewBox="0 0 37.8 42.5" enable-background="new 0 0 37.8 42.5" xml:space="preserve">
<g opacity="0.25">
	<path fill="none" stroke="#000000" stroke-miterlimit="10" d="M4.7,36.9c0,0.6,0.1,1.2,0.3,1.8c-2.5-0.3-4.5-2.5-4.5-5.1v-4.3
		c0-2.5,1.8-4.6,4.2-5V36.9z"/>
	<path fill="none" stroke="#000000" stroke-miterlimit="10" d="M37.3,29.3v4.3c0,2.7-2.1,5-4.8,5.1c0.2-0.6,0.3-1.2,0.3-1.8V24.2
		C35.3,24.5,37.3,26.7,37.3,29.3z"/>
	<path fill="none" stroke="#000000" stroke-miterlimit="10" d="M32.8,16.7v20.1c0,0.6-0.1,1.3-0.3,1.8c-0.7,1.9-2.6,3.3-4.8,3.3H9.8
		c-2.2,0-4.1-1.4-4.8-3.3c-0.2-0.6-0.3-1.2-0.3-1.8V16.2c0.9,0.9,2.2,1.5,3.6,1.5h21.7C31,17.6,32,17.3,32.8,16.7z"/>
	<path fill="none" stroke="#000000" stroke-miterlimit="10" d="M35.1,10.9v1.6c0,1.8-0.9,3.3-2.3,4.3c-0.8,0.6-1.8,0.9-2.9,0.9H8.2
		c-1.4,0-2.6-0.6-3.6-1.5c-1-0.9-1.6-2.2-1.6-3.7v-1.6c0-2.8,2.3-5.1,5.1-5.1h21.7C32.7,5.7,35.1,8,35.1,10.9z"/>
	<path fill="none" stroke="#000000" stroke-miterlimit="10" d="M25.8,5L25.8,5c0,0.2,0,0.5-0.1,0.7H11.7c0-0.2-0.1-0.4-0.1-0.7v0
		c0-2.5,2-4.5,4.5-4.5h5.1C23.8,0.5,25.8,2.5,25.8,5z"/>
	<path fill="none" stroke="#000000" stroke-miterlimit="10" d="M26.4,31.7V42H10.8V31.7c0-2.8,2.3-5.1,5.1-5.1h5.4
		C24.1,26.6,26.4,28.9,26.4,31.7z"/>
	<path fill="none" stroke="#000000" stroke-linecap="round" stroke-linejoin="round" stroke-miterlimit="10" d="M13.6,33.9l10.4,0
		c-1.2,0-1.3,0.2-1.7,1"/>
	<polyline fill="none" stroke="#000000" stroke-linecap="round" stroke-linejoin="round" stroke-miterlimit="10" points="34.7,14.1 
		23,14.1 20.9,16.2 20.9,22.4 16.7,22.4 16.7,16.2 14.5,14.1 3.5,14.1 	"/>
	<line fill="none" stroke="#000000" stroke-miterlimit="10" x1="14.8" y1="19.6" x2="22.5" y2="19.6"/>
	<rect x="14.7" y="9.3" fill="none" stroke="#000000" stroke-miterlimit="10" width="7.6" height="2"/>
</g>
</svg>
