<?xml version="1.0" encoding="utf-8"?>
<!-- Generator: Adobe Illustrator 18.0.0, SVG Export Plug-In . SVG Version: 6.00 Build 0)  -->
<!DOCTYPE svg PUBLIC "-//W3C//DTD SVG 1.1//EN" "http://www.w3.org/Graphics/SVG/1.1/DTD/svg11.dtd">
<svg version="1.1" id="Layer_1" xmlns="http://www.w3.org/2000/svg" xmlns:xlink="http://www.w3.org/1999/xlink" x="0px" y="0px"
	 viewBox="0 0 35.2 45.7" enable-background="new 0 0 35.2 45.7" xml:space="preserve">
<g opacity="0.25">
	<path fill="none" stroke="#000000" stroke-miterlimit="10" d="M18.4,32.9c0,1.1-0.4,2.1-1.1,2.8c-0.8,0.8-1.9,1.4-3.1,1.4
		c-1.4,0-2.6-0.7-3.3-1.7c-0.5-0.7-0.9-1.6-0.9-2.5c0-2.3,1.9-4.2,4.2-4.2C16.5,28.7,18.4,30.6,18.4,32.9z"/>
	<path d="M16.6,36.6v8.8c0,0-2.4-3.8-2.4-3.6l-2.6,3.9l0-9.5c0.9,0.7,1.5,0.9,2.6,0.9C15.1,37.2,15.7,37,16.6,36.6z"/>
	<line fill="none" stroke="#000000" stroke-miterlimit="10" x1="6.3" y1="14.4" x2="21.7" y2="14.4"/>
	<line fill="none" stroke="#000000" stroke-miterlimit="10" x1="6.3" y1="17.3" x2="21.7" y2="17.3"/>
	<line fill="none" stroke="#000000" stroke-miterlimit="10" x1="6.3" y1="20.2" x2="21.7" y2="20.2"/>
	<line fill="none" stroke="#000000" stroke-miterlimit="10" x1="6.3" y1="23.2" x2="21.7" y2="23.2"/>
	<line fill="none" stroke="#000000" stroke-miterlimit="10" x1="6.3" y1="26.1" x2="21.7" y2="26.1"/>
	<rect x="16.3" y="6.7" fill="none" stroke="#000000" stroke-miterlimit="10" width="5.2" height="2.7"/>
	<path fill="none" stroke="#000000" stroke-miterlimit="10" d="M12.3,39.9c-5.5,0-11.8,0-11.8,0s0-35.2,0-35.2c0,0-0.1-4.2,3.5-4.2
		c4.4,0,27,0.2,27,0.2c-3.7,0-3.8,3.7-3.8,3.7c0,0,0,35.2,0,35.2c0.2,0.1-5.9,0-11.3,0.1"/>
	<path fill="none" stroke="#000000" stroke-miterlimit="10" d="M30.9,0.7c2.8,0,3.8,2.7,3.8,3.8c0,4-2.9,3.9-4,3.5
		c0,0.3,0,6.7,0,6.7"/>
</g>
</svg>
