<?xml version="1.0" encoding="utf-8"?>
<!-- Generator: Adobe Illustrator 18.0.0, SVG Export Plug-In . SVG Version: 6.00 Build 0)  -->
<!DOCTYPE svg PUBLIC "-//W3C//DTD SVG 1.1//EN" "http://www.w3.org/Graphics/SVG/1.1/DTD/svg11.dtd">
<svg version="1.1"
	 id="svg2" xmlns:cc="http://creativecommons.org/ns#" xmlns:rdf="http://www.w3.org/1999/02/22-rdf-syntax-ns#" xmlns:dc="http://purl.org/dc/elements/1.1/"
	 xmlns="http://www.w3.org/2000/svg" xmlns:xlink="http://www.w3.org/1999/xlink" x="0px" y="0px" viewBox="-90 -56 234.9 234.9"
	 enable-background="new -90 -56 234.9 234.9" xml:space="preserve">
<g>
	<path d="M-17,61.5c-5.2,3.5-10.3,6.9-15.5,10.3V51.2C-27.3,54.6-22.3,58-17,61.5z"/>
	<path d="M21.2,88.1c0,9.2,0,18.4,0,28.1C4.8,105.3-11.3,94.5-27.6,83.6c7.1-4.8,14.1-9.4,21-14.1c0.7-0.5,1.2-0.4,1.8,0
		c8.4,5.6,16.8,11.2,25.2,16.8C20.9,86.9,21.3,87.3,21.2,88.1z"/>
	<path d="M-6.6,53.5c-6.9-4.7-13.9-9.3-21-14.1C-11.4,28.6,4.7,17.8,21.2,6.8v11c0,5.5,0,11.1,0,16.6c0,1.1-0.3,1.7-1.2,2.3
		c-8.2,5.5-16.5,11-24.7,16.5C-5.3,53.6-5.7,54.1-6.6,53.5z"/>
	<path d="M38.8,68.7c-3.4,2.3-6.8,4.5-10.2,6.8c-0.6,0.4-1.1,0.8-2,0.2c-7-4.7-14-9.4-21.2-14.2c7.2-4.8,14.2-9.5,21.1-14.1
		c0.6-0.4,1.1-0.6,1.8-0.1c7,4.7,14,9.4,21.2,14.2C45.9,64,42.4,66.3,38.8,68.7z"/>
	<path d="M61.6,69.5c6.9,4.7,13.9,9.4,21,14.1c-16.2,10.8-32.3,21.6-48.4,32.3c-0.7-0.3-0.4-0.9-0.4-1.3c0-8.7,0-17.4,0-26
		c0-1.1,0.3-1.7,1.2-2.3c8.2-5.5,16.5-11,24.7-16.5C60.3,69.4,60.8,68.9,61.6,69.5z"/>
	<path d="M33.7,34.8c0.1-9,0-18,0-27.1c0-0.2,0.1-0.4,0.2-0.8c16.2,10.8,32.3,21.5,48.6,32.4c-1,0.7-1.8,1.3-2.7,1.9
		c-5.9,3.9-11.8,7.9-17.7,11.9c-1,0.7-1.7,0.8-2.8,0c-8.1-5.5-16.2-10.9-24.3-16.3C34.4,36.3,33.7,35.9,33.7,34.8z"/>
	<path d="M72,61.5c5.2-3.5,10.2-6.8,15.5-10.3v20.7C82.3,68.3,77.3,65,72,61.5z"/>
	<path d="M27.4-56C-37.4-55.9-89.9-3.4-90,61.4C-90.1,126.2-37.4,178.9,27.5,179C92.3,179,145,126.3,145,61.5
		C145-3.4,92.3-56,27.4-56z M100.1,61.6c0,7,0,13.9,0,20.9c0,3-1.1,5.2-3.6,6.8c-21.6,14.3-43.2,28.7-64.7,43.1
		c-3.3,2.2-5.4,2.2-8.7,0c-21.5-14.3-43-28.7-64.6-43c-2.6-1.7-3.8-3.9-3.7-7c0.1-13.9,0.1-27.9,0-41.8c0-3.2,1.1-5.4,3.8-7.2
		C-19.9,19.2,1.6,4.9,23-9.4c3.5-2.3,5.4-2.3,9,0C53.5,5,74.9,19.3,96.4,33.5c2.6,1.7,3.8,3.9,3.7,7
		C100.1,47.6,100.1,54.6,100.1,61.6z"/>
	<path fill="#FEFEFE" d="M-17,61.5c-5.2,3.5-10.3,6.9-15.5,10.3V51.2C-27.3,54.6-22.3,58-17,61.5z"/>
	<path fill="#FEFEFE" d="M21.2,88.1c0,9.2,0,18.4,0,28.1C4.8,105.3-11.3,94.5-27.6,83.6c7.1-4.8,14.1-9.4,21-14.1
		c0.7-0.5,1.2-0.4,1.8,0c8.4,5.6,16.8,11.2,25.2,16.8C20.9,86.9,21.3,87.3,21.2,88.1z"/>
	<path fill="#FEFEFE" d="M-6.6,53.5c-6.9-4.7-13.9-9.3-21-14.1C-11.4,28.6,4.7,17.8,21.2,6.8v11c0,5.5,0,11.1,0,16.6
		c0,1.1-0.3,1.7-1.2,2.3c-8.2,5.5-16.5,11-24.7,16.5C-5.3,53.6-5.7,54.1-6.6,53.5z"/>
	<path fill="#FEFEFE" d="M38.8,68.7c-3.4,2.3-6.8,4.5-10.2,6.8c-0.6,0.4-1.1,0.8-2,0.2c-7-4.7-14-9.4-21.2-14.2
		c7.2-4.8,14.2-9.5,21.1-14.1c0.6-0.4,1.1-0.6,1.8-0.1c7,4.7,14,9.4,21.2,14.2C45.9,64,42.4,66.3,38.8,68.7z"/>
	<path fill="#FEFEFE" d="M61.6,69.5c6.9,4.7,13.9,9.4,21,14.1c-16.2,10.8-32.3,21.6-48.4,32.3c-0.7-0.3-0.4-0.9-0.4-1.3
		c0-8.7,0-17.4,0-26c0-1.1,0.3-1.7,1.2-2.3c8.2-5.5,16.5-11,24.7-16.5C60.3,69.4,60.8,68.9,61.6,69.5z"/>
	<path fill="#FEFEFE" d="M33.7,34.8c0.1-9,0-18,0-27.1c0-0.2,0.1-0.4,0.2-0.8c16.2,10.8,32.3,21.5,48.6,32.4c-1,0.7-1.8,1.3-2.7,1.9
		c-5.9,3.9-11.8,7.9-17.7,11.9c-1,0.7-1.7,0.8-2.8,0c-8.1-5.5-16.2-10.9-24.3-16.3C34.4,36.3,33.7,35.9,33.7,34.8z"/>
	<path fill="#FEFEFE" d="M87.5,51.2v20.7C82.3,68.3,77.3,65,72,61.5C77.2,58,82.2,54.7,87.5,51.2z"/>
	<path d="M21.3,34.4c0,1.1-0.3,1.7-1.2,2.3c-8.2,5.5-16.5,11-24.7,16.5c-0.6,0.4-1.1,0.9-2,0.3c-6.9-4.7-13.9-9.3-21-14.1
		C-11.4,28.6,4.7,17.8,21.2,6.8v11C21.2,23.3,21.2,28.9,21.3,34.4z"/>
	<path d="M82.6,39.3c-1,0.7-1.8,1.3-2.7,1.9c-5.9,3.9-11.8,7.9-17.7,11.9c-1,0.7-1.7,0.8-2.8,0c-8.1-5.5-16.2-10.9-24.3-16.3
		c-0.8-0.5-1.4-0.9-1.4-2c0.1-9,0-18,0-27.1c0-0.2,0.1-0.4,0.2-0.8C50.2,17.8,66.3,28.5,82.6,39.3z"/>
	<path d="M21.2,116.2C4.8,105.3-11.3,94.5-27.6,83.6c7.1-4.8,14.1-9.4,21-14.1c0.7-0.5,1.2-0.4,1.8,0c8.4,5.6,16.8,11.2,25.2,16.8
		c0.6,0.4,1,0.8,1,1.6C21.2,97.3,21.2,106.5,21.2,116.2z"/>
	<path d="M82.6,83.6c-16.2,10.8-32.3,21.6-48.4,32.3c-0.7-0.3-0.4-0.9-0.4-1.3c0-8.7,0-17.4,0-26c0-1.1,0.3-1.7,1.2-2.3
		c8.2-5.5,16.5-11,24.7-16.5c0.6-0.4,1.1-0.8,2-0.2C68.6,74.2,75.5,78.9,82.6,83.6z"/>
	<path d="M49.6,61.5c-3.7,2.5-7.2,4.8-10.8,7.2c-3.4,2.3-6.8,4.5-10.2,6.8c-0.6,0.4-1.1,0.8-2,0.2c-7-4.7-14-9.4-21.2-14.2
		c7.2-4.8,14.2-9.5,21.1-14.1c0.6-0.4,1.1-0.6,1.8-0.1C35.3,52,42.4,56.7,49.6,61.5z"/>
	<path d="M-17,61.5c-5.2,3.5-10.3,6.9-15.5,10.3V51.2C-27.3,54.6-22.3,58-17,61.5z"/>
	<path d="M87.5,51.2v20.7C82.3,68.3,77.3,65,72,61.5C77.2,58,82.2,54.7,87.5,51.2z"/>
</g>
</svg>
