<?xml version="1.0" encoding="utf-8"?>
<!-- Generator: Adobe Illustrator 18.0.0, SVG Export Plug-In . SVG Version: 6.00 Build 0)  -->
<!DOCTYPE svg PUBLIC "-//W3C//DTD SVG 1.1//EN" "http://www.w3.org/Graphics/SVG/1.1/DTD/svg11.dtd">
<svg version="1.1" id="Layer_1" xmlns="http://www.w3.org/2000/svg" xmlns:xlink="http://www.w3.org/1999/xlink" x="0px" y="0px"
	 viewBox="0 0 44.3 42.2" enable-background="new 0 0 44.3 42.2" xml:space="preserve">
<g>
	<g opacity="0.25">
		<path fill="none" stroke="#000000" stroke-miterlimit="10" d="M0.5,38.6v-7.8c0,0,0.3-3.2,4.9-4.6c4.6-1.4,8.5-3.9,8.5-3.9
			l3.9,3.8"/>
		<line fill="none" stroke="#000000" stroke-miterlimit="10" x1="7.6" y1="25.5" x2="7.6" y2="38.2"/>
		<line fill="none" stroke="#000000" stroke-miterlimit="10" x1="10.8" y1="23.9" x2="10.8" y2="38.2"/>
		<line fill="none" stroke="#000000" stroke-miterlimit="10" x1="13.9" y1="22.3" x2="13.9" y2="19.2"/>
		<line fill="none" stroke="#000000" stroke-miterlimit="10" x1="21.6" y1="22.3" x2="21.6" y2="18.8"/>
		<path fill="none" stroke="#000000" stroke-miterlimit="10" d="M10.8,9.8c0,0,0.6,11,6.8,11s7.1-11.3,7.1-11.3"/>
		<path fill="none" stroke="#000000" stroke-miterlimit="10" d="M9,8.9c1.4,0,3.6-8.4,8.6-8.4s7.4,8.7,8.6,8.7s-4.3,2.3-8.5,2.3
			S7.7,8.9,9,8.9z"/>
		<line fill="none" stroke="#000000" stroke-miterlimit="10" x1="16.4" y1="8" x2="16.4" y2="0.7"/>
		<line fill="none" stroke="#000000" stroke-miterlimit="10" x1="18.9" y1="8" x2="18.9" y2="0.7"/>
	</g>
	<g opacity="0.25">
		<path fill="none" stroke="#000000" stroke-miterlimit="10" d="M41.9,26.1v10.5c0,0.7-0.2,1.3-0.5,1.8h-8.2L32.3,40H28l-0.9-1.6
			h-8.4c-0.3-0.5-0.5-1.1-0.5-1.8V26.1c0-1.8,1.5-3.4,3.4-3.4h17.1C40.4,22.7,41.9,24.2,41.9,26.1z"/>
		<path fill="none" stroke="#000000" stroke-miterlimit="10" d="M43.8,38.4c0,2.2-2,3.3-2,3.3H18.5c0,0-2-1.1-2-3.3h10.6L28,40
			l0.1,0.1h4.2l0.1-0.1l0.9-1.6H43.8z"/>
		<rect x="20.5" y="25.2" fill="none" stroke="#000000" stroke-miterlimit="10" width="18.8" height="10.8"/>
	</g>
</g>
</svg>
