<?xml version="1.0" encoding="utf-8"?>
<!-- Generator: Adobe Illustrator 18.0.0, SVG Export Plug-In . SVG Version: 6.00 Build 0)  -->
<!DOCTYPE svg PUBLIC "-//W3C//DTD SVG 1.1//EN" "http://www.w3.org/Graphics/SVG/1.1/DTD/svg11.dtd">
<svg version="1.1" id="Layer_1" xmlns="http://www.w3.org/2000/svg" xmlns:xlink="http://www.w3.org/1999/xlink" x="0px" y="0px"
	 viewBox="0 0 45.9 41.6" enable-background="new 0 0 45.9 41.6" xml:space="preserve">
<g>
	<g opacity="0.25">
		<path fill="none" stroke="#000000" stroke-miterlimit="10" d="M22.4,23.3c-0.1-0.1-1.8-1.2-1.8-1.2l-3.6,3.6l-3.7-3.6
			c0,0-3.7,2.4-8.1,3.7c-4.4,1.3-4.6,4.4-4.6,4.4v7.4"/>
		<line fill="none" stroke="#000000" stroke-miterlimit="10" x1="7.2" y1="25.1" x2="7.2" y2="37.2"/>
		<line fill="none" stroke="#000000" stroke-miterlimit="10" x1="10.3" y1="23.5" x2="10.3" y2="37.2"/>
		<line fill="none" stroke="#000000" stroke-miterlimit="10" x1="13.2" y1="22.1" x2="13.2" y2="19.1"/>
		<line fill="none" stroke="#000000" stroke-miterlimit="10" x1="20.5" y1="22.1" x2="20.5" y2="18.7"/>
		<path fill="none" stroke="#000000" stroke-miterlimit="10" d="M10.2,10.2c0,0,0.6,10.4,6.5,10.4s6.8-10.7,6.8-10.7"/>
		<path fill="none" stroke="#000000" stroke-miterlimit="10" d="M8.6,9.4c1.3,0,3.4-8,8.2-8s7.1,8.3,8.2,8.3c1.1,0-4.1,2.2-8.1,2.2
			S7.3,9.4,8.6,9.4z"/>
		<line fill="none" stroke="#000000" stroke-miterlimit="10" x1="15.5" y1="8.5" x2="15.5" y2="1.5"/>
		<line fill="none" stroke="#000000" stroke-miterlimit="10" x1="17.9" y1="8.5" x2="17.9" y2="1.5"/>
	</g>
	<g opacity="0.25">
		<path fill="none" stroke="#000000" stroke-miterlimit="10" d="M40.9,31.2v7.5c0,1.4-1.1,2.6-2.3,2.6h-16c-1.3,0-2.3-1.1-2.3-2.6
			v-7.5c0-1.4,1.1-2.6,2.3-2.6h16C39.9,28.6,40.9,29.8,40.9,31.2z"/>
		<path fill="none" stroke="#000000" stroke-linecap="round" stroke-linejoin="round" stroke-miterlimit="10" d="M44.8,39.4
			c-0.3,0.3-2.1-0.4-3.9-1.3v-4.2c1.8-0.9,3.5-1.6,3.9-1.3C45.4,33.3,45.4,38.8,44.8,39.4z"/>
		<circle fill="none" stroke="#000000" stroke-miterlimit="10" cx="34.2" cy="24.7" r="3.8"/>
		<circle fill="none" stroke="#000000" stroke-miterlimit="10" cx="26.4" cy="24.7" r="3.8"/>
		<circle fill="none" stroke="#000000" stroke-miterlimit="10" cx="37.7" cy="31.3" r="1.5"/>
		<line fill="none" stroke="#000000" stroke-miterlimit="10" x1="34.5" y1="28.6" x2="34.5" y2="41.1"/>
	</g>
</g>
</svg>
