<?xml version="1.0" encoding="utf-8"?>
<!-- Generator: Adobe Illustrator 18.0.0, SVG Export Plug-In . SVG Version: 6.00 Build 0)  -->
<!DOCTYPE svg PUBLIC "-//W3C//DTD SVG 1.1//EN" "http://www.w3.org/Graphics/SVG/1.1/DTD/svg11.dtd">
<svg version="1.1" id="Layer_1" xmlns="http://www.w3.org/2000/svg" xmlns:xlink="http://www.w3.org/1999/xlink" x="0px" y="0px"
	 viewBox="0 0 41.1 42.7" enable-background="new 0 0 41.1 42.7" xml:space="preserve">
<g opacity="0.25">
	<path fill="none" stroke="#000000" stroke-linecap="round" stroke-linejoin="round" stroke-miterlimit="10" d="M20.7,40.9
		c0,0-9.1-5-19.3,0V18.7c0,0,9.4-7.7,19.4,0L20.7,40.9z"/>
	<path fill="none" stroke="#000000" stroke-linecap="round" stroke-linejoin="round" stroke-miterlimit="10" d="M20.7,20l0,22.2
		c0,0-9.1-3.3-19.3-0.6V20"/>
	<path fill="none" stroke="#000000" stroke-linecap="round" stroke-linejoin="round" stroke-miterlimit="10" d="M20.8,40.9
		c0,0,9.1-5,19.3,0V18.7c0,0-9.4-7.7-19.4,0L20.8,40.9z"/>
	<path fill="none" stroke="#000000" stroke-linecap="round" stroke-linejoin="round" stroke-miterlimit="10" d="M20.8,19.9l0,22.2
		c0,0,8.8-3.3,19.3-0.5V19.9"/>
	<g>
		<polygon fill="none" stroke="#000000" stroke-miterlimit="10" points="7.8,10.9 6.9,9.3 20.6,2 34.2,9.3 33.3,10.9 20.6,4.2 		"/>
	</g>
</g>
<path opacity="0.25" fill="none" stroke="#000000" stroke-miterlimit="10" d="M6.1,21.8c3.2-0.7,6.5-0.7,9.9,0"/>
<path opacity="0.25" fill="none" stroke="#000000" stroke-miterlimit="10" d="M6.1,25.1c3.2-0.7,6.5-0.7,9.9,0"/>
<path opacity="0.25" fill="none" stroke="#000000" stroke-miterlimit="10" d="M6.1,28.5c3.2-0.7,6.5-0.7,9.9,0"/>
<path opacity="0.25" fill="none" stroke="#000000" stroke-miterlimit="10" d="M26,21.8c3.2-0.7,6.5-0.7,9.9,0"/>
<path opacity="0.25" fill="none" stroke="#000000" stroke-miterlimit="10" d="M26,25.1c3.2-0.7,6.5-0.7,9.9,0"/>
<path opacity="0.25" fill="none" stroke="#000000" stroke-miterlimit="10" d="M26,28.5c3.2-0.7,6.5-0.7,9.9,0"/>
</svg>
