<?xml version="1.0" encoding="utf-8"?>
<!-- Generator: Adobe Illustrator 18.0.0, SVG Export Plug-In . SVG Version: 6.00 Build 0)  -->
<!DOCTYPE svg PUBLIC "-//W3C//DTD SVG 1.1//EN" "http://www.w3.org/Graphics/SVG/1.1/DTD/svg11.dtd">
<svg version="1.1" id="Layer_1" xmlns="http://www.w3.org/2000/svg" xmlns:xlink="http://www.w3.org/1999/xlink" x="0px" y="0px"
	 viewBox="0 0 39.5 42.6" enable-background="new 0 0 39.5 42.6" xml:space="preserve">
<g opacity="0.25">
	<g>
		<path fill="none" stroke="#000000" stroke-miterlimit="10" d="M34.5,27.5c0,8.1-6.5,14.6-14.6,14.6c-8.1,0-14.6-6.5-14.6-14.6
			c0-3,0.9-5.9,2.5-8.2c2.6-3.9,7-6.4,12.1-6.4c5,0,9.4,2.5,12,6.3C33.5,21.6,34.5,24.4,34.5,27.5z"/>
		<g>
			<path fill="none" stroke="#000000" stroke-linecap="round" stroke-linejoin="round" stroke-miterlimit="10" d="M28.2,15.7
				c0,0,0.1,6-2.4,7.2s-4.6,0.9-6.2,2s-4.3,1-4.6,2.3c-0.3,1.3,6,5.3,8.5,1.7s2.2,2.1,1,4.3c-0.6,1,4.4,0.6,4-1.5S27,27.2,27,27.2
				s6.9-0.1,6.8,4.3"/>
			<path fill="none" stroke="#000000" stroke-linecap="round" stroke-linejoin="round" stroke-miterlimit="10" d="M8.4,18.5
				c0,0,0.3,7.1,1.8,7.9c1.4,0.7-2.9,1.7-2.5,3.7s2.2,4.1,1.2,6.6"/>
			<path fill="none" stroke="#000000" stroke-miterlimit="10" d="M13.3,40.5c0,0,0.6-14,13.6-0.4"/>
			<path fill="none" stroke="#000000" stroke-linecap="round" stroke-linejoin="round" stroke-miterlimit="10" d="M20.4,20.9
				c0,0,0.5-3.5-0.8-3.8s-1.9,4.6-1.9,5C17.9,22.5,20.4,20.9,20.4,20.9z"/>
			<polyline fill="none" stroke="#000000" stroke-linecap="round" stroke-linejoin="round" stroke-miterlimit="10" points="
				23.8,13.5 24.8,16.9 26.3,14.6 			"/>
		</g>
	</g>
	<g>
		<path fill="none" stroke="#000000" stroke-miterlimit="10" d="M7.8,19.1V13C7.8,13,9.3,7,20,7s11.5,5.9,11.5,5.9v5.9"/>
		<polyline fill="none" stroke="#000000" stroke-miterlimit="10" points="7.8,13 1.1,10 19.7,0.6 38.4,10 31.5,12.9 		"/>
		<line fill="none" stroke="#000000" stroke-miterlimit="10" x1="2.5" y1="10.3" x2="2.5" y2="18.3"/>
		<circle fill="none" stroke="#000000" stroke-miterlimit="10" cx="2.4" cy="19.6" r="1.8"/>
	</g>
</g>
</svg>
