<?xml version="1.0" encoding="utf-8"?>
<!-- Generator: Adobe Illustrator 18.0.0, SVG Export Plug-In . SVG Version: 6.00 Build 0)  -->
<!DOCTYPE svg PUBLIC "-//W3C//DTD SVG 1.1//EN" "http://www.w3.org/Graphics/SVG/1.1/DTD/svg11.dtd">
<svg version="1.1" id="Layer_1" xmlns="http://www.w3.org/2000/svg" xmlns:xlink="http://www.w3.org/1999/xlink" x="0px" y="0px"
	 viewBox="0 0 33.6 36.6" enable-background="new 0 0 33.6 36.6" xml:space="preserve">
<g opacity="0.25">
	<g>
		<path fill="none" stroke="#000000" stroke-miterlimit="10" d="M33.1,36.6v-7.4c0,0-0.3-3-4.6-4.4c-4.4-1.3-8-3.7-8-3.7l-3.6,3.6
			l-3.7-3.6c0,0-3.7,2.4-8,3.7c-4.4,1.3-4.6,4.4-4.6,4.4v7.4"/>
		<line fill="none" stroke="#000000" stroke-miterlimit="10" x1="7.2" y1="24.2" x2="7.2" y2="36.2"/>
		<line fill="none" stroke="#000000" stroke-miterlimit="10" x1="10.3" y1="22.6" x2="10.3" y2="36.2"/>
		<line fill="none" stroke="#000000" stroke-miterlimit="10" x1="26.4" y1="24.3" x2="26.4" y2="36.3"/>
		<line fill="none" stroke="#000000" stroke-miterlimit="10" x1="23.4" y1="22.7" x2="23.4" y2="36.3"/>
		<line fill="none" stroke="#000000" stroke-miterlimit="10" x1="13.2" y1="21.1" x2="13.2" y2="18.2"/>
		<line fill="none" stroke="#000000" stroke-miterlimit="10" x1="20.5" y1="21.1" x2="20.5" y2="17.8"/>
		<path fill="none" stroke="#000000" stroke-miterlimit="10" d="M10.2,9.3c0,0,0.6,10.4,6.4,10.4S23.4,9,23.4,9"/>
		<path fill="none" stroke="#000000" stroke-miterlimit="10" d="M8.6,8.5c1.3,0,3.4-8,8.1-8s7,8.2,8.1,8.2s-4.1,2.2-8.1,2.2
			S7.3,8.5,8.6,8.5z"/>
		<line fill="none" stroke="#000000" stroke-miterlimit="10" x1="15.5" y1="7.6" x2="15.5" y2="0.7"/>
		<line fill="none" stroke="#000000" stroke-miterlimit="10" x1="17.9" y1="7.6" x2="17.9" y2="0.7"/>
	</g>
	<circle fill="none" stroke="#000000" stroke-miterlimit="10" cx="14.1" cy="12.5" r="1.7"/>
	<circle fill="none" stroke="#000000" stroke-miterlimit="10" cx="19" cy="12.5" r="1.7"/>
	<line fill="none" stroke="#000000" stroke-miterlimit="10" x1="10.7" y1="11.6" x2="12.4" y2="12.5"/>
	<line fill="none" stroke="#000000" stroke-miterlimit="10" x1="20.7" y1="12.5" x2="22.8" y2="11.7"/>
</g>
</svg>
