<?xml version="1.0" encoding="utf-8"?>
<!-- Generator: Adobe Illustrator 18.0.0, SVG Export Plug-In . SVG Version: 6.00 Build 0)  -->
<!DOCTYPE svg PUBLIC "-//W3C//DTD SVG 1.1//EN" "http://www.w3.org/Graphics/SVG/1.1/DTD/svg11.dtd">
<svg version="1.1" id="Layer_1" xmlns="http://www.w3.org/2000/svg" xmlns:xlink="http://www.w3.org/1999/xlink" x="0px" y="0px"
	 viewBox="0 0 43.1 40.7" enable-background="new 0 0 43.1 40.7" xml:space="preserve">
<g opacity="0.25">
	<g>
		<path fill="none" stroke="#000000" stroke-miterlimit="10" d="M29.1,25.4c-4.4-1.3-8.2-3.8-8.2-3.8l-3.7,3.7l-3.8-3.7
			c0,0-3.8,2.4-8.2,3.8c-4.4,1.3-4.7,4.4-4.7,4.4v7.5"/>
		<line fill="none" stroke="#000000" stroke-miterlimit="10" x1="7.4" y1="24.7" x2="7.4" y2="37"/>
		<line fill="none" stroke="#000000" stroke-miterlimit="10" x1="10.5" y1="23.1" x2="10.5" y2="37"/>
		<line fill="none" stroke="#000000" stroke-miterlimit="10" x1="27" y1="24.8" x2="27" y2="37.1"/>
		<line fill="none" stroke="#000000" stroke-miterlimit="10" x1="23.9" y1="23.2" x2="23.9" y2="37.1"/>
		<line fill="none" stroke="#000000" stroke-miterlimit="10" x1="13.4" y1="21.6" x2="13.4" y2="18.6"/>
		<line fill="none" stroke="#000000" stroke-miterlimit="10" x1="20.9" y1="21.6" x2="20.9" y2="18.2"/>
		<path fill="none" stroke="#000000" stroke-miterlimit="10" d="M10.4,9.5c0,0,0.6,10.6,6.6,10.6s6.9-10.9,6.9-10.9"/>
		<path fill="none" stroke="#000000" stroke-miterlimit="10" d="M8.8,8.7c1.3,0,3.5-8.2,8.3-8.2s7.2,8.4,8.3,8.4
			c1.2,0-4.2,2.2-8.2,2.2S7.4,8.7,8.8,8.7z"/>
		<line fill="none" stroke="#000000" stroke-miterlimit="10" x1="15.9" y1="7.8" x2="15.9" y2="0.7"/>
		<line fill="none" stroke="#000000" stroke-miterlimit="10" x1="18.3" y1="7.8" x2="18.3" y2="0.7"/>
	</g>
	<g>
		<polygon fill="none" stroke="#000000" stroke-miterlimit="10" points="42.6,21.4 42.6,40.2 29.2,40.2 29.2,21.4 32.7,21.4 
			32.7,23.1 39.1,23.1 39.1,21.4 		"/>
		<rect x="32.7" y="20.1" fill="none" stroke="#000000" stroke-miterlimit="10" width="6.5" height="3"/>
		<line fill="none" stroke="#000000" stroke-miterlimit="10" x1="40.2" y1="26.1" x2="31.7" y2="26.1"/>
		<line fill="none" stroke="#000000" stroke-miterlimit="10" x1="40.2" y1="28.4" x2="31.7" y2="28.4"/>
		<line fill="none" stroke="#000000" stroke-miterlimit="10" x1="40.2" y1="31" x2="31.7" y2="31"/>
	</g>
</g>
</svg>
