<?xml version="1.0" encoding="utf-8"?>
<!-- Generator: Adobe Illustrator 18.0.0, SVG Export Plug-In . SVG Version: 6.00 Build 0)  -->
<!DOCTYPE svg PUBLIC "-//W3C//DTD SVG 1.1//EN" "http://www.w3.org/Graphics/SVG/1.1/DTD/svg11.dtd">
<svg version="1.1" id="Layer_1" xmlns="http://www.w3.org/2000/svg" xmlns:xlink="http://www.w3.org/1999/xlink" x="0px" y="0px"
	 viewBox="0 0 22.6 658.3" enable-background="new 0 0 22.6 658.3" xml:space="preserve">
<g>
	<polyline fill="none" stroke="#F5F6F6" stroke-width="7" stroke-miterlimit="10" points="15.4,653.6 5,639.6 15.4,627.1 5,613.1 
		15.4,600.7 5,586.6 15.4,574.2 5,560.1 15.4,547.7 5,533.2 15.4,520.8 5,506.7 15.4,494.3 5,480.3 15.4,467.9 5,453.8 15.4,441.4 
		5,427.3 15.4,414.8 5,400.8 15.4,388.4 5,374.3 15.4,361.9 5,347.8 15.4,335.4 5,320.9 15.4,308.7 5,294.7 15.4,282.3 5,268.2 
		15.4,255.8 5,241.7 15.4,229.3 5,214.8 15.4,202.4 5,188.3 15.4,175.9 5,161.9 15.4,149.5 5,135.4 15.4,123 5,108.9 15.4,96.4 
		5,82.4 15.4,70 5,55.9 15.4,43.5 5,29.4 15.4,17 5,2.5 	"/>
</g>
</svg>
